<svg width="202" height="96" viewBox="0 0 202 96" fill="none" xmlns="http://www.w3.org/2000/svg">
<g clip-path="url(#clip0_41_72376)">
<path d="M18.1336 95.1147H193.586C208.126 86.6769 200.642 61.2769 188.5 56.1287C175.422 50.5841 196.188 31.4225 176.048 25.1964C162.895 21.1324 145.072 25.6734 136.368 16.9259C126.14 6.65435 109.146 -5.85362 77.5016 3.86654C53.0928 11.3627 66.3504 25.8097 26.4103 30.1587C5.87344 32.3951 9.83833 51.5319 11.7588 55.4906C13.4253 58.9351 24.4588 64.3992 9.12589 71.9263C-13.3687 82.9598 17.607 94.9165 18.1336 95.1147Z" fill="#EAFCFC"/>
<path d="M66.4121 66.747C66.4121 66.747 84.3904 43.9737 95.077 44.048C105.77 44.1224 117.417 59.0465 132.626 71.796C149.675 86.082 127.416 86.683 126.127 86.8007C124.845 86.9184 80.5122 85.351 79.775 84.5828C79.0378 83.8146 67.1989 73.9334 67.1989 73.9334L66.4121 66.747Z" fill="#C5DDF9"/>
<path d="M158.644 67.4341H159.406V59.0149H158.644V67.4341Z" fill="#355389"/>
<path d="M159.03 42.679L161.508 62.714H156.552L159.03 42.679Z" fill="#3C8F7C"/>
<path d="M160.61 55.4469L157.072 58.4826L157.209 57.3798L160.498 54.561L160.61 55.4469Z" fill="#50BFA5"/>
<path d="M160.064 51.0546L157.902 51.7981L158.001 50.9741L159.972 50.2988L160.064 51.0546Z" fill="#50BFA5"/>
<path d="M55.1931 52.6035L57.411 70.4951H52.9814L55.1931 52.6035Z" fill="#3C8F7C"/>
<path d="M59.0957 55.2366L60.7808 68.8597H57.4106L59.0957 55.2366Z" fill="#3C8F7C"/>
<path d="M62.4663 59.2881L64.1514 72.9174H60.7812L62.4663 59.2881Z" fill="#3C8F7C"/>
<path d="M51.0548 56.5994L53.2664 74.4909H48.8369L51.0548 56.5994Z" fill="#3C8F7C"/>
<path d="M59.4241 62.1628C78.629 65.3595 107.443 94.074 129.386 94.074C151.329 94.074 156.056 87.2036 164.289 88.6594C172.516 90.1091 183.568 94.074 183.568 94.074L20.4814 94.5572C20.4814 94.5572 40.2191 58.9724 59.4241 62.1628Z" fill="#86B1F2"/>
<path d="M128.934 53.7993L131.152 71.6847H126.722L128.934 53.7993Z" fill="#3C8F7C"/>
<path d="M134.206 59.0652L135.891 72.6883H132.521L134.206 59.0652Z" fill="#3C8F7C"/>
<path d="M120.923 66.3381L122.608 79.9612H119.238L120.923 66.3381Z" fill="#3C8F7C"/>
<path d="M124.795 57.7888L127.007 75.6804H122.578L124.795 57.7888Z" fill="#3C8F7C"/>
<path d="M146.466 62.1628C127.261 65.3595 98.4476 94.074 76.5044 94.074C54.5551 94.074 49.8344 87.2036 41.601 88.6594C33.3739 90.1091 22.3218 94.074 22.3218 94.074L185.409 94.5572C185.409 94.5572 165.665 58.9724 146.466 62.1628Z" fill="#86B1F2"/>
<path d="M139.889 88.9731H140.756V79.3645H139.889V88.9731Z" fill="#355389"/>
<path d="M140.327 60.7317L143.152 83.5917H137.496L140.327 60.7317Z" fill="#3C8F7C"/>
<path d="M142.129 75.3029L138.096 78.7598L138.251 77.5083L141.999 74.2869L142.129 75.3029Z" fill="#50BFA5"/>
<path d="M141.51 70.2908L139.038 71.1333L139.156 70.1979L141.398 69.4297L141.51 70.2908Z" fill="#50BFA5"/>
<path d="M149.686 93.0691H150.51V78.5787H149.686V93.0691Z" fill="#355389"/>
<path d="M149.88 52.7461L153.956 81.9933H145.81L149.88 52.7461Z" fill="#3C8F7C"/>
<path d="M153.696 80.1347L146.386 77.8301L146.497 77.0371L153.578 79.2736L153.696 80.1347Z" fill="#50BFA5"/>
<path d="M152.413 70.8979L147.569 69.3677L147.674 68.5747L152.29 70.0306L152.413 70.8979Z" fill="#50BFA5"/>
<path d="M20.4814 94.557C20.4814 94.557 41.5387 76.269 68.6858 75.1477C77.7988 74.7697 115.131 82.334 146.565 88.2751C147.884 88.523 150.74 90.97 152.079 91.224C166.959 94.0242 180.83 94.6128 185.315 94.7924L20.4814 94.557Z" fill="#96D9C9"/>
<path d="M189.733 74.4415L189.764 72.8679C189.764 71.697 188.872 70.7554 187.775 70.7554C185.006 70.7554 182.757 73.1405 182.757 76.0832V78.2329C182.757 79.1746 182.255 79.9923 181.524 80.4074C180.855 80.7791 180.453 81.5287 180.453 82.3279V83.4616C180.453 84.6882 180.998 85.8343 181.896 86.6025C182.423 87.0548 182.763 87.7424 182.763 88.5168V90.1214C182.763 91.8994 184.12 93.3366 185.793 93.3366H186.747C188.42 93.3366 189.776 91.8994 189.776 90.1214C189.504 87.8787 190.167 86.5839 190.935 85.8405C192.062 84.7502 192.725 83.22 192.725 81.6031V81.3738C192.725 79.664 191.982 78.0656 190.743 76.9753C190.179 76.5045 189.733 75.7239 189.733 74.4415Z" fill="#4E9B87"/>
<path d="M192.849 95.2015C192.849 95.2015 185.117 84.9361 180.254 83.3626C175.391 81.789 179.976 88.0399 179.976 88.0399C179.976 88.0399 171.346 78.6047 168.18 79.4534C165.281 80.234 168.18 86.0822 168.18 86.0822C168.18 86.0822 164.909 82.8422 160.944 82.8422C156.979 82.8422 164.011 94.966 164.011 94.966L192.849 95.2015Z" fill="#96D9C9"/>
<path d="M168.18 94.9721C168.18 94.9721 162.895 80.841 156.353 82.4765C151.05 83.8022 154.823 90.9081 154.495 90.5859C154.173 90.2638 151.329 85.4378 146.726 85.4378C142.123 85.4378 148.139 91.9488 148.139 91.9488C148.139 91.9488 138.338 88.8884 137.57 92.1037C136.932 94.7738 140.494 94.9721 140.494 94.9721H168.18Z" fill="#3C8F7C"/>
<path d="M47.3933 92.333C47.4243 92.1596 47.4367 91.9737 47.4367 91.794C47.4367 89.7497 45.5224 88.0894 43.1558 88.0894C40.7893 88.0894 38.875 89.7497 38.875 91.794C38.875 91.9799 38.8874 92.1596 38.9184 92.333H47.3933Z" fill="#3C8F7C"/>
<path d="M52.238 91.4225C52.269 91.1747 52.2814 90.9207 52.2814 90.6605C52.2814 87.7798 50.3671 85.438 48.0006 85.438C45.634 85.438 43.7197 87.7736 43.7197 90.6605C43.7197 90.9207 43.7321 91.1747 43.7631 91.4225H52.238Z" fill="#50BFA5"/>
<path d="M50.6708 94.6253C50.6398 94.4518 50.6274 94.2659 50.6274 94.0863C50.6274 92.0419 52.5417 90.3816 54.9083 90.3816C57.2748 90.3816 59.1891 92.0419 59.1891 94.0863C59.1891 94.2721 59.1767 94.4518 59.1458 94.6253H50.6708Z" fill="#50BFA5"/>
<path d="M43.8253 94.6251C43.7881 94.3773 43.7695 94.1233 43.7695 93.8631C43.7695 90.9824 46.198 88.6406 49.1965 88.6406C52.1949 88.6406 54.6234 90.9762 54.6234 93.8631C54.6234 94.1233 54.6048 94.3773 54.5677 94.6251H43.8253Z" fill="#3C8F7C"/>
<path d="M47.9883 88.6406C46.4891 88.6406 45.1509 89.384 44.2712 90.5425C43.819 90.4372 43.3419 90.3753 42.8463 90.3753C40.1886 90.3753 38.0327 92.0356 38.0327 94.0799C38.0327 94.2658 38.0513 94.4455 38.0823 94.6189H52.7524C52.7833 94.3711 52.8019 94.1171 52.8019 93.8569C52.8019 90.9824 50.646 88.6406 47.9883 88.6406Z" fill="#50BFA5"/>
<path d="M29.4333 83.6289C28.1757 81.6589 27.9403 79.2861 27.9651 77.6382C27.9899 75.8478 28.3244 74.5097 28.3244 74.4973L28.2315 74.4663C28.2253 74.4787 27.8969 75.8292 27.866 77.632C27.8412 79.2985 28.0766 81.696 29.3528 83.6909L29.4333 83.6289Z" fill="#3C8F7C"/>
<path d="M28.6343 74.1626C28.6033 74.5653 28.4236 74.906 28.1634 75.1166C27.9404 74.8378 27.8165 74.4476 27.8475 74.0449C27.8785 73.6422 28.0581 73.3015 28.3183 73.0908C28.5413 73.3758 28.6652 73.7599 28.6343 74.1626Z" fill="#3C8F7C"/>
<path d="M27.7792 75.0981C27.9961 75.4512 28.058 75.8477 27.9899 76.1946C27.6615 76.1141 27.3456 75.8849 27.1349 75.5379C26.9181 75.1848 26.8561 74.7883 26.9243 74.4414C27.2526 74.5219 27.5686 74.7512 27.7792 75.0981Z" fill="#3C8F7C"/>
<path d="M27.3021 76.2006C27.6367 76.4175 27.8597 76.752 27.9464 77.0989C27.6305 77.1857 27.2588 77.1361 26.9304 76.9193C26.5959 76.7024 26.3729 76.3679 26.2861 76.021C26.5959 75.928 26.9676 75.9838 27.3021 76.2006Z" fill="#3C8F7C"/>
<path d="M27.4509 77.7311C27.7111 77.9045 27.8784 78.1957 27.9218 78.5178C27.6492 78.6355 27.3394 78.6232 27.0792 78.4497C26.819 78.2762 26.6518 77.9851 26.6084 77.6629C26.8748 77.5452 27.1845 77.5576 27.4509 77.7311Z" fill="#3C8F7C"/>
<path d="M28.5348 75.916C28.8322 75.7612 29.1605 75.7488 29.4455 75.8603C29.3711 76.1638 29.1729 76.4426 28.8755 76.5975C28.5782 76.7524 28.2498 76.7648 27.9648 76.6533C28.0392 76.3497 28.2374 76.0709 28.5348 75.916Z" fill="#3C8F7C"/>
<path d="M28.504 76.9754C28.8014 76.8205 29.1297 76.8081 29.4147 76.9196C29.3404 77.2232 29.1421 77.5019 28.8448 77.6568C28.5474 77.8117 28.2191 77.8241 27.9341 77.7126C28.0084 77.4028 28.2067 77.1302 28.504 76.9754Z" fill="#3C8F7C"/>
<path d="M27.6368 79.41C27.7916 79.4472 27.9217 79.5525 28.0023 79.6888C27.8908 79.7817 27.7421 79.8189 27.5872 79.7879C27.4323 79.7507 27.3022 79.6454 27.2217 79.5091C27.3332 79.4162 27.4819 79.3728 27.6368 79.41Z" fill="#3C8F7C"/>
<path d="M28.9129 85.0163C26.0322 84.3286 23.8329 82.1913 22.4948 80.5248C21.0451 78.7158 20.2645 77.0432 20.2583 77.0308L20.1406 77.0927C20.1468 77.1113 20.9336 78.7902 22.3895 80.6116C23.74 82.2966 25.9641 84.4525 28.882 85.1464L28.9129 85.0163Z" fill="#3C8F7C"/>
<path d="M20.2953 76.3928C20.5989 76.8264 20.698 77.3468 20.6174 77.8176C20.1652 77.7619 19.7253 77.5017 19.4156 77.0618C19.1058 76.622 19.0129 76.1078 19.0934 75.637C19.5519 75.6989 19.9917 75.9529 20.2953 76.3928Z" fill="#3C8F7C"/>
<path d="M20.2209 78.1832C20.7227 78.3195 21.1192 78.6479 21.336 79.063C20.9457 79.317 20.4377 79.4099 19.9359 79.2736C19.4341 79.1373 19.0376 78.809 18.8208 78.3939C19.2111 78.1399 19.7191 78.0531 20.2209 78.1832Z" fill="#3C8F7C"/>
<path d="M20.6486 79.7691C21.1566 79.6514 21.6584 79.7567 22.0363 80.0169C21.7947 80.4258 21.3796 80.748 20.8716 80.8657C20.3636 80.9834 19.8618 80.8781 19.4839 80.6179C19.7255 80.209 20.1344 79.8868 20.6486 79.7691Z" fill="#3C8F7C"/>
<path d="M21.7946 81.2066C22.3026 81.0889 22.8044 81.1942 23.1823 81.4544C22.9407 81.8633 22.5256 82.1854 22.0176 82.3032C21.5096 82.4209 21.0078 82.3155 20.6299 82.0553C20.8715 81.6465 21.2866 81.3305 21.7946 81.2066Z" fill="#3C8F7C"/>
<path d="M21.4537 78.8151C21.4289 78.3257 21.59 77.8611 21.8626 77.5327C22.1661 77.7929 22.3767 78.208 22.4015 78.7036C22.4263 79.193 22.2652 79.6576 21.9926 79.986C21.6829 79.7196 21.4785 79.3045 21.4537 78.8151Z" fill="#3C8F7C"/>
<path d="M22.6494 80.302C22.6184 79.8126 22.7733 79.348 23.0397 79.0134C23.3495 79.2674 23.5663 79.6825 23.5973 80.1719C23.6283 80.6613 23.4734 81.126 23.207 81.4605C22.8972 81.2065 22.6804 80.7914 22.6494 80.302Z" fill="#3C8F7C"/>
<path d="M23.6407 82.6313C23.8265 82.5074 24.0434 82.4827 24.2354 82.5446C24.2044 82.749 24.0867 82.9411 23.9009 83.065C23.715 83.1889 23.4982 83.2137 23.3062 83.1517C23.3371 82.9411 23.4548 82.749 23.6407 82.6313Z" fill="#3C8F7C"/>
<path d="M36.5456 89.0928L36.6695 89.0866C36.4898 85.7908 37.6979 82.687 38.7448 80.6612C39.8785 78.4681 41.0742 77.037 41.0866 77.0185L40.9937 76.9255C40.9813 76.9379 39.7794 78.3814 38.6333 80.5869C37.5863 82.6251 36.3659 85.7598 36.5456 89.0928Z" fill="#3C8F7C"/>
<path d="M41.6379 76.8263C41.3529 77.3033 40.944 77.6007 40.529 77.6874C40.4608 77.1856 40.5599 76.628 40.8449 76.1448C41.1299 75.6678 41.5388 75.3704 41.9539 75.2837C42.022 75.7855 41.9229 76.3492 41.6379 76.8263Z" fill="#3C8F7C"/>
<path d="M40.1138 77.4025C40.1324 77.9787 39.9589 78.5177 39.674 78.9018C39.358 78.5796 39.1474 78.084 39.1288 77.5017C39.1102 76.9255 39.2837 76.3865 39.5687 76.0024C39.8846 76.3246 40.0952 76.8202 40.1138 77.4025Z" fill="#3C8F7C"/>
<path d="M38.8995 78.431C39.135 78.9266 39.1783 79.4904 39.0544 79.986C38.6517 79.8807 38.2738 79.5647 38.0384 79.0691C37.803 78.5735 37.7596 78.0098 37.8835 77.5142C38.2862 77.6195 38.6641 77.9416 38.8995 78.431Z" fill="#3C8F7C"/>
<path d="M38.0634 80.9648C38.1749 81.1631 38.212 81.3985 38.1749 81.6091C38.0014 81.5782 37.8341 81.4605 37.7226 81.2622C37.6111 81.064 37.5739 80.8286 37.6111 80.6179C37.7846 80.6489 37.9518 80.7666 38.0634 80.9648Z" fill="#3C8F7C"/>
<path d="M37.704 81.8755C37.8155 82.0737 37.8527 82.3092 37.8155 82.5198C37.642 82.4888 37.4748 82.3711 37.3632 82.1729C37.2517 81.9746 37.2146 81.7392 37.2517 81.5286C37.4252 81.5595 37.5925 81.6772 37.704 81.8755Z" fill="#3C8F7C"/>
<path d="M40.4421 78.9264C40.8695 78.9326 41.2412 79.1494 41.4828 79.484C41.2103 79.8123 40.82 80.0168 40.3987 80.0106C39.9712 80.0044 39.5995 79.7875 39.3579 79.453C39.6243 79.1247 40.0146 78.9202 40.4421 78.9264Z" fill="#3C8F7C"/>
<path d="M39.7482 80.2091C40.1757 80.2153 40.5474 80.4321 40.789 80.7667C40.5164 81.095 40.1261 81.2995 39.7048 81.2933C39.2774 81.2871 38.9057 81.0702 38.6641 80.7357C38.9366 80.4074 39.3269 80.2029 39.7482 80.2091Z" fill="#3C8F7C"/>
<path d="M38.6086 81.9622C38.8874 81.9684 39.129 82.1046 39.2839 82.3215C39.1042 82.5321 38.8502 82.6684 38.5776 82.6622C38.2988 82.656 38.0572 82.5197 37.9023 82.3029C38.0758 82.0923 38.3298 81.9622 38.6086 81.9622Z" fill="#3C8F7C"/>
<path d="M25.7966 94.5014C25.7966 93.95 29.111 94.6005 29.3898 93.8509C29.6686 93.1013 26.5524 93.0579 26.5524 92.0481C26.5524 91.0383 28.1384 91.7445 29.0738 91.7445C30.0031 91.7445 27.2339 91.3109 27.2339 90.9516C27.2339 90.5922 28.2065 90.7843 28.2065 90.4002C28.2065 90.0223 23.1017 89.7311 23.7026 88.8019C24.2974 87.8726 27.0418 89.0744 27.7976 88.5912C28.5534 88.108 23.777 87.5814 23.6531 86.869C23.5354 86.1503 27.1719 87.4823 27.6861 86.9681C28.2003 86.4539 21.9308 84.6016 22.1972 83.2386C22.4574 81.8757 26.9489 84.9795 28.0702 84.6449C29.1915 84.3104 22.4141 79.5339 23.9876 77.6754C25.5612 75.8169 28.572 83.8334 29.6004 83.5484C30.6288 83.2634 28.3118 78.4808 29.365 77.6506C30.412 76.8205 33.4228 84.3847 33.6149 85.9335C33.8069 87.4885 34.1848 82.5943 35.8327 82.0182C37.4806 81.4482 35.8823 85.0476 36.1673 86.1503C36.4522 87.2469 37.7904 83.3316 39.5932 83.6227C41.396 83.9077 36.3345 87.4885 36.8363 88.5417C37.3381 89.5948 41.2473 85.0352 42.4677 86.2618C43.6943 87.4885 37.7594 90.8834 38.0877 91.8127C38.4099 92.742 41.9721 91.1498 42.9943 92.172C44.0165 93.1942 39.1719 93.8447 38.5276 93.8447C37.8833 93.8447 35.43 94.6501 37.8276 94.4952C40.2127 94.3403 25.7966 95.0466 25.7966 94.5014Z" fill="#3C8F7C"/>
<path d="M35.2446 95.1331C35.2446 95.1331 39.2343 95.3499 40.399 94.6127C41.5637 93.8817 40.6468 93.3117 40.6468 93.3117C40.6468 93.3117 44.3391 93.2312 44.3267 92.3577C44.3205 91.4842 43.4222 91.5337 43.4222 91.5337C43.4222 91.5337 45.2869 90.2699 44.94 89.4769C44.4072 88.2627 41.3716 90.3752 41.3716 90.3752C41.3716 90.3752 42.369 89.192 41.5637 88.9194C39.352 88.1636 35.2446 95.1331 35.2446 95.1331Z" fill="#50BFA5"/>
<path d="M44.9395 89.4771C45.2865 90.2638 43.4217 91.5338 43.4217 91.5338C43.4217 91.5338 44.7661 91.5152 44.5492 92.364C44.3324 93.2127 40.9499 93.4977 40.9499 93.4977C40.9499 93.4977 42.1331 93.7269 40.9684 94.4579C39.8038 95.189 35.2441 95.127 35.2441 95.127L44.9395 89.4771Z" fill="#96D9C9"/>
<path d="M18.9022 60.298C18.9084 60.0812 19.2058 59.9139 19.3669 60.106C19.5218 60.298 19.5156 60.1679 19.6704 60.583C20.1103 61.7663 20.7608 62.9124 21.5104 63.916C22.9539 65.8365 24.3849 66.8029 26.0081 67.7631C25.339 66.2577 24.8929 64.647 24.8372 63.0239C24.8186 62.4353 24.8248 61.822 25.0788 61.2768C25.1469 61.1282 25.4195 61.1591 25.4505 61.3264C25.5868 62.1627 25.3886 62.7946 25.6549 64.2939C26.2992 67.8685 28.8578 71.6599 31.3297 74.3176C30.8589 69.8199 30.6296 64.7151 31.4722 60.1803C31.6085 59.4369 31.8315 58.7306 32.0359 57.9996C32.0855 57.8261 32.3271 57.9005 32.2961 58.074C32.2528 58.3156 31.8501 61.4379 31.8253 61.6485C31.435 65.0992 31.5093 68.9278 31.8191 72.4157C33.7334 69.8199 35.0158 66.7905 35.6167 63.6248C35.7964 62.6893 35.8397 61.7229 36.0876 60.806C36.1247 60.6821 36.3292 60.6635 36.3539 60.806C36.6079 62.1813 36.0999 64.616 35.7282 65.9418C34.9724 68.6243 33.7644 71.028 32.1165 73.1715C32.0545 73.252 34.768 94.235 34.6936 94.5014C34.5697 94.9474 33.7892 95.2634 33.6714 94.4704C33.6219 94.1482 32.1289 81.3924 31.4598 75.4823C31.2058 75.3398 31.0447 75.092 30.388 74.3548C28.8764 72.6511 27.3772 70.5386 26.3798 68.5375C25.7788 68.5004 21.4423 66.394 19.2925 61.5928C19.2306 61.4565 18.9518 60.806 18.9084 60.6573C18.8651 60.5272 18.8961 60.4219 18.9022 60.298Z" fill="#184655"/>
<path d="M32.8224 53.4957C32.7728 52.8514 32.748 52.1886 32.748 51.5195C32.748 44.0234 35.9261 37.9521 39.8539 37.9521C43.7754 37.9521 46.9597 44.0296 46.9597 51.5195C46.9597 52.1886 46.9349 52.8514 46.8853 53.4957H32.8224Z" fill="#50BFA5"/>
<path d="M24.7877 50.1629C24.7382 49.2522 24.7134 48.3229 24.7134 47.3751C24.7134 36.8062 27.8915 28.2383 31.8192 28.2383C35.7469 28.2383 38.9188 36.8 38.9188 47.3689C38.9188 48.3167 38.894 49.246 38.8445 50.1567H24.7877V50.1629Z" fill="#96D9C9"/>
<path d="M27.3834 61.8839C27.433 61.2396 27.4577 60.5768 27.4577 59.9077C27.4577 52.4116 24.2796 46.3403 20.3519 46.3403C16.4304 46.3403 13.2461 52.4178 13.2461 59.9077C13.2461 60.5768 13.2709 61.2396 13.3204 61.8839H27.3834Z" fill="#96D9C9"/>
<path d="M38.7575 61.8841C38.8194 60.9734 38.8504 60.0441 38.8504 59.0962C38.8504 48.5273 34.8174 39.9595 29.8427 39.9595C24.868 39.9595 20.835 48.5273 20.835 59.0962C20.835 60.0441 20.8659 60.9734 20.9279 61.8841H38.7575Z" fill="#50BFA5"/>
<path d="M31.8436 39.9595C34.3279 39.9595 36.5519 42.6791 38.014 46.9414C38.7574 46.5511 39.5504 46.3405 40.3743 46.3405C44.7853 46.3405 48.366 52.4179 48.366 59.9078C48.366 60.5769 48.3351 61.2398 48.2793 61.8841H23.9324C23.8767 60.9734 23.8457 60.0441 23.8457 59.0962C23.8519 48.5273 27.4265 39.9595 31.8436 39.9595Z" fill="#96D9C9"/>
<path d="M19.7446 91.4656C19.7694 91.224 19.7818 90.97 19.7818 90.716C19.7818 87.8848 18.171 85.5864 16.1824 85.5864C14.1937 85.5864 12.583 87.8848 12.583 90.716C12.583 90.97 12.5954 91.2178 12.6202 91.4656H19.7446Z" fill="#3C8F7C"/>
<path d="M23.8149 90.2018C23.8397 89.8549 23.8521 89.508 23.8521 89.1487C23.8521 85.1528 22.2413 81.9189 20.2527 81.9189C18.2641 81.9189 16.6533 85.159 16.6533 89.1487C16.6533 89.508 16.6657 89.8611 16.6905 90.2018H23.8149Z" fill="#50BFA5"/>
<path d="M22.4952 94.6314C22.4704 94.3898 22.458 94.1358 22.458 93.8818C22.458 91.0506 24.0687 88.7522 26.0574 88.7522C28.046 88.7522 29.6568 91.0506 29.6568 93.8818C29.6568 94.1358 29.6444 94.3836 29.6196 94.6314H22.4952Z" fill="#50BFA5"/>
<path d="M16.74 94.6315C16.709 94.2846 16.6904 93.9377 16.6904 93.5784C16.6904 89.5825 18.7348 86.3486 21.25 86.3486C23.7715 86.3486 25.8097 89.5887 25.8097 93.5784C25.8097 93.9377 25.7911 94.2908 25.7601 94.6315H16.74Z" fill="#3C8F7C"/>
<path d="M20.2402 86.3486C18.9826 86.3486 17.8551 87.377 17.1117 88.9878C16.7338 88.8391 16.3311 88.7585 15.916 88.7585C13.6796 88.7585 11.8706 91.0569 11.8706 93.8881C11.8706 94.1421 11.883 94.3899 11.914 94.6377H24.2423C24.2733 94.2908 24.2857 93.9439 24.2857 93.5845C24.2857 89.5887 22.4767 86.3486 20.2402 86.3486Z" fill="#50BFA5"/>
<path opacity="0.5" d="M93.4789 22.8235C93.1567 21.4296 91.9115 20.395 90.4247 20.395C90.1521 20.395 89.8857 20.4322 89.6317 20.4941C88.8945 18.9205 87.3023 17.8364 85.4562 17.8364C84.9791 17.8364 84.5145 17.9107 84.0808 18.047C83.0834 16.3991 81.2744 15.2964 79.2115 15.2964C76.752 15.2964 74.658 16.8576 73.8651 19.0382C73.3013 18.7223 72.657 18.5488 71.9693 18.5488C69.8134 18.5488 68.0664 20.2959 68.0664 22.4518C68.0664 22.5819 68.0726 22.7058 68.085 22.8297H93.4789V22.8235Z" fill="white"/>
<path opacity="0.5" d="M128.091 47.1643C128.246 46.4952 128.847 45.9934 129.56 45.9934C129.69 45.9934 129.82 46.012 129.937 46.043C130.291 45.2872 131.059 44.7606 131.951 44.7606C132.18 44.7606 132.403 44.7977 132.614 44.8597C133.091 44.0667 133.964 43.5339 134.962 43.5339C136.145 43.5339 137.155 44.2835 137.533 45.3367C137.805 45.188 138.115 45.1013 138.443 45.1013C139.478 45.1013 140.321 45.9438 140.321 46.9784C140.321 47.0404 140.314 47.1023 140.314 47.1581H128.091V47.1643Z" fill="white"/>
<path opacity="0.5" d="M106.625 38.4416C106.433 37.6177 105.696 37.0043 104.816 37.0043C104.655 37.0043 104.5 37.0229 104.345 37.0663C103.912 36.137 102.964 35.4927 101.874 35.4927C101.589 35.4927 101.316 35.5361 101.062 35.6166C100.474 34.644 99.4018 33.9873 98.1813 33.9873C96.7255 33.9873 95.4864 34.9104 95.0156 36.2052C94.6811 36.0193 94.3032 35.914 93.8943 35.914C92.6181 35.914 91.5835 36.9486 91.5835 38.2248C91.5835 38.2991 91.5897 38.3735 91.5959 38.4478H106.625V38.4416Z" fill="white"/>
<path opacity="0.5" d="M135.891 28.7708C135.637 27.6557 134.64 26.8318 133.45 26.8318C133.233 26.8318 133.023 26.8627 132.818 26.9123C132.23 25.6547 130.96 24.7874 129.479 24.7874C129.095 24.7874 128.73 24.8431 128.383 24.9546C127.59 23.6351 126.14 22.7554 124.492 22.7554C122.528 22.7554 120.856 24.0006 120.217 25.7476C119.771 25.4998 119.251 25.3573 118.7 25.3573C116.977 25.3573 115.583 26.7512 115.583 28.4735C115.583 28.5726 115.59 28.6779 115.596 28.777H135.891V28.7708Z" fill="white"/>
<path opacity="0.5" d="M54.0347 42.3567C54.1648 41.8053 54.6604 41.3903 55.2489 41.3903C55.3604 41.3903 55.4657 41.4026 55.5649 41.4274C55.856 40.8017 56.4941 40.3681 57.2314 40.3681C57.4234 40.3681 57.6031 40.399 57.7765 40.4486C58.173 39.7919 58.8917 39.3521 59.7156 39.3521C60.6944 39.3521 61.5308 39.9716 61.8467 40.8451C62.0698 40.7212 62.33 40.6468 62.6025 40.6468C63.4637 40.6468 64.1575 41.3407 64.1575 42.2018C64.1575 42.2514 64.1575 42.3009 64.1513 42.3505H54.0347V42.3567Z" fill="white"/>
<path d="M88.4429 36.9974V36.5361H86.8847V36.9974H88.4429Z" fill="#F7CC7F"/>
<path d="M90.1658 47.3591V36.4823C90.1658 35.7648 89.5815 35.1804 88.8639 35.1804H86.5983C85.8807 35.1804 85.2964 35.7648 85.2964 36.4823V47.3591C85.2964 48.0767 85.8807 48.661 86.5983 48.661H88.8639C89.5815 48.661 90.1658 48.0767 90.1658 47.3591Z" fill="#F47458"/>
<path d="M87.7363 48.661H89.0383C89.6636 48.661 90.1659 48.3842 90.1659 48.0459V35.7955C90.1659 35.4572 89.8071 35.1804 89.192 35.1804H87.7363V48.661Z" fill="#B75742"/>
<path d="M87.9478 43.3095V40.1726H87.3737V43.3095H87.9478Z" fill="#1A1A1A"/>
<path d="M94.7996 47.3386V39.4245C94.7996 38.6966 94.205 38.1021 93.4772 38.1021H91.2526C90.5248 38.1021 89.9302 38.6966 89.9302 39.4245V47.3386C89.9302 48.0664 90.5248 48.661 91.2526 48.661H93.4772C94.205 48.661 94.7996 48.0664 94.7996 47.3386Z" fill="#355389"/>
<path d="M92.3701 48.661H93.6721C94.2974 48.661 94.7997 48.4457 94.7997 48.1792V38.5941C94.7997 38.3276 94.2974 38.1123 93.6721 38.1123H92.3701V48.661Z" fill="#5184CE"/>
<path d="M93.0757 39.517V39.1582H91.5175V39.517H93.0757Z" fill="#F7CC7F"/>
<path d="M92.5869 44.4718V42.0115H92.0128V44.4718H92.5869Z" fill="#1A1A1A"/>
<path d="M69.3451 48.8354H69.1094V51.2035H69.3451V48.8354Z" fill="#13375B"/>
<path d="M97.5366 48.8354H97.3008V51.2035H97.5366V48.8354Z" fill="#13375B"/>
<path d="M87.3571 43.7915H71.2829C70.4935 43.7915 69.8579 44.4271 69.8579 45.2165V47.2257C69.8579 48.0151 70.4935 48.6507 71.2829 48.6507H87.3571C88.1464 48.6507 88.782 48.0151 88.782 47.2257V45.2165C88.7922 44.4271 88.1464 43.7915 87.3571 43.7915Z" fill="#B75742"/>
<path d="M88.7928 46.2211V44.9192C88.7928 44.2938 88.4032 43.7915 87.9316 43.7915H70.7298C70.2582 43.7915 69.8687 44.2938 69.8687 44.9192V46.2211H88.7928Z" fill="#91342A"/>
<path d="M72.9129 45.5137H72.2671V47.0719H72.9129V45.5137Z" fill="#F7CC7F"/>
<path d="M86.3831 45.5137H85.7373V47.0719H86.3831V45.5137Z" fill="#F7CC7F"/>
<path d="M81.268 46.0059H76.8599V46.5799H81.268V46.0059Z" fill="#1A1A1A"/>
<path d="M84.5273 38.9221H74.1222C73.2713 38.9221 72.5947 39.609 72.5947 40.4496V42.2538C72.5947 43.1047 73.2816 43.7813 74.1222 43.7813H84.5273C85.3782 43.7813 86.0548 43.0944 86.0548 42.2538V40.4598C86.0651 39.609 85.3782 38.9221 84.5273 38.9221Z" fill="#4E9B87"/>
<path d="M86.0651 41.362V40.0498C86.0651 39.4244 85.7883 38.9221 85.45 38.9221H73.1996C72.8613 38.9221 72.5845 39.4244 72.5845 40.0498V41.3517H86.0651V41.362Z" fill="#3C8F7C"/>
<path d="M74.3993 40.6545H73.938V42.2127H74.3993V40.6545Z" fill="#F7CC7F"/>
<path d="M96.5011 48.6506L85.3579 48.6404L85.1733 43.6787H96.5011C97.8748 43.6787 98.9922 44.7961 98.9922 46.1698C98.9922 47.5435 97.8748 48.6506 96.5011 48.6506Z" fill="#FAE0B2"/>
<path d="M87.7367 46.1698C87.7367 47.5435 86.7115 48.6609 85.4506 48.6609C84.1897 48.6609 83.1646 47.5435 83.1646 46.1698C83.1646 44.7961 84.1897 43.6787 85.4506 43.6787C86.7115 43.6787 87.7367 44.7961 87.7367 46.1698Z" fill="#F7CC7F"/>
<path d="M90.0944 48.8862C89.9919 48.8042 89.9714 48.6607 90.0432 48.5479C90.8018 47.4818 91.0068 46.3439 90.6685 45.1752C90.484 44.5191 90.1559 44.0271 89.9817 43.781C89.9099 43.6785 89.9201 43.5452 90.0124 43.4632C90.1149 43.371 90.2789 43.3812 90.3712 43.5042C90.5762 43.781 90.9145 44.3243 91.1298 45.0317C91.4066 45.9543 91.4886 47.3588 90.443 48.8452C90.361 48.9477 90.2072 48.9682 90.0944 48.8862Z" fill="#F47458"/>
<path d="M94.1745 48.8862C94.072 48.8042 94.0515 48.6607 94.1233 48.5479C94.8819 47.4818 95.0869 46.3439 94.7486 45.1752C94.5641 44.5191 94.236 44.0271 94.0617 43.781C93.99 43.6785 94.0002 43.5452 94.0925 43.4632C94.195 43.371 94.359 43.3812 94.4513 43.5042C94.6563 43.781 94.9946 44.3243 95.2099 45.0317C95.4867 45.9543 95.5687 47.3588 94.5231 48.8452C94.4308 48.9477 94.277 48.9682 94.1745 48.8862Z" fill="#F47458"/>
<path d="M87.3368 45.7186C87.2138 44.9394 86.7935 44.5396 86.4552 44.3449C85.9631 44.0578 85.3173 44.0168 84.7535 44.2321C84.2101 44.4371 83.7796 44.9189 83.6156 45.4725C83.472 45.9646 83.5745 46.4772 83.9026 46.8975C84.4459 47.6048 85.2865 47.492 85.6966 47.3178C86.0656 47.1537 86.3424 46.7744 86.4039 46.3541C86.4552 46.0056 86.2912 45.6775 85.9939 45.4828C85.6966 45.288 85.3173 45.288 85.0302 45.4828C84.815 45.6263 84.5997 45.8928 84.8047 46.4156L84.9687 46.3541C84.8355 46.0261 84.8867 45.7903 85.1225 45.6365C85.3583 45.4828 85.6556 45.4828 85.9016 45.6365C86.1476 45.7903 86.2707 46.0568 86.2297 46.3336C86.1784 46.7027 85.9426 47.0307 85.6248 47.164C85.266 47.3178 84.5177 47.4203 84.0359 46.8052C83.6668 46.3234 83.6873 45.8518 83.7796 45.5443C83.9231 45.042 84.3229 44.6011 84.8047 44.4166C85.3275 44.2116 85.9119 44.2526 86.3629 44.5089C86.7935 44.7549 87.0703 45.1855 87.1523 45.7595C87.2651 46.4976 87.1318 47.082 86.7422 47.5023C86.0144 48.2916 84.4767 48.2814 84.2101 48.2711C84.3024 48.3327 84.4049 48.3942 84.5074 48.4454H84.5177C84.9892 48.4454 86.1784 48.3634 86.8652 47.6151C87.3061 47.1537 87.4598 46.5182 87.3368 45.7186Z" fill="#F47458"/>
<path d="M84.3534 40.6545H83.8921V42.2127H84.3534V40.6545Z" fill="#F7CC7F"/>
<path d="M80.7141 41.1467H77.5771V41.7208H80.7141V41.1467Z" fill="#1A1A1A"/>
<path d="M76.5712 38.719L71.2725 48.7656L71.4266 48.8469L76.7254 38.8003L76.5712 38.719Z" fill="black"/>
<path d="M82.5208 38.6423L82.3667 38.7236L87.8053 49.0332L87.9595 48.9519L82.5208 38.6423Z" fill="black"/>
<path d="M93.7176 37.9704L93.5562 38.0361L97.9628 48.8496L98.1242 48.7838L93.7176 37.9704Z" fill="black"/>
<path d="M88.4353 35.0856L88.271 35.1436L93.1005 48.8321L93.2648 48.7742L88.4353 35.0856Z" fill="black"/>
<path d="M98.6131 48.6509H68.0742V48.9687H98.6131V48.6509Z" fill="#13375B"/>
<path d="M46.6079 82.8289C46.6079 82.8289 69.9093 86.6936 70.1964 86.5296C70.4732 86.3656 73.4973 73.3361 73.4973 73.3361C73.4973 73.3361 54.2247 69.8711 53.9172 69.8711C53.6096 69.8711 49.4168 73.2233 49.3553 73.4488C49.2938 73.6744 46.6079 82.8289 46.6079 82.8289Z" fill="#183658"/>
<path d="M117.701 86.1401C118.265 86.1914 146.487 85.5865 146.487 85.5865L144.365 79.0974C144.365 79.0974 140.449 73.1823 138.389 73.2848C136.318 73.3976 124.026 71.3986 121.904 72.8748C119.782 74.351 117.886 73.1721 116.871 76.6986C115.866 80.2148 115.077 80.6146 115.866 82.7366C116.635 84.8587 117.701 86.1401 117.701 86.1401Z" fill="#183658"/>
<path d="M58.3766 94.7614C63.6816 94.7614 67.9821 90.4609 67.9821 85.1559C67.9821 79.8508 63.6816 75.5503 58.3766 75.5503C53.0715 75.5503 48.771 79.8508 48.771 85.1559C48.771 90.4609 53.0715 94.7614 58.3766 94.7614Z" fill="#1A1A1A"/>
<path d="M58.3763 91.84C62.0677 91.84 65.0602 88.8475 65.0602 85.1561C65.0602 81.4647 62.0677 78.4722 58.3763 78.4722C54.6849 78.4722 51.6924 81.4647 51.6924 85.1561C51.6924 88.8475 54.6849 91.84 58.3763 91.84Z" fill="#9E9DA2"/>
<path d="M58.3763 89.6257C60.8448 89.6257 62.846 87.6246 62.846 85.1561C62.846 82.6876 60.8448 80.6865 58.3763 80.6865C55.9078 80.6865 53.9067 82.6876 53.9067 85.1561C53.9067 87.6246 55.9078 89.6257 58.3763 89.6257Z" fill="#D8D9DD"/>
<path d="M132.34 94.7614C137.645 94.7614 141.946 90.4609 141.946 85.1559C141.946 79.8508 137.645 75.5503 132.34 75.5503C127.035 75.5503 122.735 79.8508 122.735 85.1559C122.735 90.4609 127.035 94.7614 132.34 94.7614Z" fill="#1A1A1A"/>
<path d="M132.341 91.84C136.032 91.84 139.025 88.8475 139.025 85.1561C139.025 81.4647 136.032 78.4722 132.341 78.4722C128.649 78.4722 125.657 81.4647 125.657 85.1561C125.657 88.8475 128.649 91.84 132.341 91.84Z" fill="#9E9DA2"/>
<path d="M127.871 85.1562C127.871 87.6268 129.87 89.6258 132.341 89.6258C134.811 89.6258 136.81 87.6268 136.81 85.1562C136.81 82.6856 134.811 80.6866 132.341 80.6866C129.87 80.6763 127.871 82.6856 127.871 85.1562Z" fill="#D8D9DD"/>
<path d="M154.391 76.0014C153.581 70.6502 150.957 69.5226 143.186 67.9644C134.616 66.2524 123.739 60.6653 123.739 60.6653C123.739 60.6653 105.184 51.5724 100.643 50.5267C96.1017 49.4811 84.9174 49.7784 75.5271 49.8604C66.1368 49.9321 60.6216 52.5462 55.8547 56.2675C51.0878 59.9888 42.8149 62.8284 42.8149 62.8284L41.3079 63.0949C39.76 63.3717 38.6426 64.7147 38.6426 66.2831V79.5689C38.6426 81.0759 39.6575 82.3881 41.1132 82.7776L46.5464 84.2128C46.9872 84.2846 47.3973 83.977 47.4485 83.526C48.0431 78.0927 52.7383 73.9614 58.3458 73.9614C64.3018 73.9717 69.1918 78.8616 69.1918 84.8279C69.1918 85.5045 69.1303 86.1708 69.0072 86.8064C68.8842 87.4728 69.3968 88.0776 70.0734 88.0776H120.049C121.023 88.0776 121.771 87.2267 121.648 86.2631C121.587 85.8018 121.556 85.3302 121.556 84.8484C121.535 78.9641 126.302 74.0844 132.187 73.9614C138.286 73.8384 143.268 78.7386 143.268 84.8177C143.268 85.2175 143.248 85.6173 143.207 86.0068C143.084 87.114 143.945 88.0776 145.052 88.0776H152.238C153.54 88.0776 154.606 87.0217 154.606 85.7095V78.7488C154.586 77.8467 154.535 76.9138 154.391 76.0014Z" fill="#F7CC7F"/>
<path d="M38.9603 67.8618H44.8753C45.3776 67.8618 45.7262 68.3744 45.5314 68.8459L44.8651 70.4349C44.2295 71.9521 42.7533 72.9363 41.1131 72.9363H38.9603C38.54 72.9363 38.1914 72.598 38.1914 72.1674V68.6307C38.1914 68.2001 38.54 67.8618 38.9603 67.8618Z" fill="#CF283C"/>
<path d="M144.98 70.3225C148.24 70.8248 151.992 73.9105 151.992 73.9105C152.894 74.8741 152.146 76.4426 150.834 76.3606L144.478 75.9608C143.155 75.8788 142.028 74.9766 141.669 73.7055C141.044 71.5629 141.566 69.7997 144.98 70.3225Z" fill="#EAFCFC"/>
<path d="M38.6733 80.0712C38.2633 80.061 37.9762 80.471 38.13 80.8503C38.5503 81.9267 39.4627 82.7673 40.6313 83.0749L46.7207 84.6844C47.2127 84.7664 47.6741 84.4178 47.7356 83.9155C47.8483 82.8801 48.0944 81.896 48.4532 80.9631C48.5762 80.6453 48.3404 80.307 48.0123 80.2968L38.6733 80.0712Z" fill="#EAB054"/>
<path d="M143.309 82.5727C142.848 82.5625 142.489 82.9622 142.551 83.4236C142.612 83.9361 142.653 84.4487 142.653 84.9818C142.653 85.4328 142.633 85.8634 142.582 86.3042C142.448 87.5344 143.402 88.6108 144.632 88.6108H152.607C154.053 88.6108 155.232 87.4319 155.232 85.9864V83.9259C155.232 83.3416 154.76 82.8597 154.176 82.8495L143.309 82.5727Z" fill="#EAB054"/>
<path opacity="0.5" d="M123.75 63.7511C123.647 63.6895 113.078 57.8975 106.076 54.6478C99.136 51.4391 91.3962 51.7774 91.0682 51.7877C90.1763 51.7672 71.652 51.3674 65.9625 53.1409C60.2217 54.9246 52.7587 63.0745 52.4409 63.423L52.3589 63.5153L54.3682 72.9466L54.5834 72.9363C60.4267 72.6083 64.8964 74.1665 67.5207 77.4367C69.4992 79.9073 69.7453 82.5214 69.7453 82.5521L69.7658 82.7777L90.8324 83.321H91.0784L91.3347 83.3312L120.695 83.9053V83.649C120.838 74.105 123.862 64.1509 123.883 64.0483L123.944 63.8536L123.75 63.7511ZM70.2066 82.2753C70.1041 81.568 69.6632 79.3332 67.9205 77.1394C66.0445 74.7816 62.231 72.0547 54.768 72.4238L52.9022 63.6691C53.7633 62.7362 60.8368 55.2732 66.1163 53.6227C71.3957 51.9722 88.5668 52.249 90.8324 52.29V82.8084L70.2066 82.2753ZM120.182 83.3825L91.3245 82.8187V52.29C92.6777 52.249 99.6179 52.208 105.871 55.1091C112.36 58.1128 121.915 63.3205 123.34 64.0996C122.909 65.5246 120.367 74.5868 120.182 83.3825Z" fill="#FEB546"/>
<path opacity="0.5" d="M38.1299 80.8503C38.5502 81.9267 39.4626 82.7673 40.6312 83.0749L46.7206 84.6844C47.2126 84.7664 47.6739 84.4178 47.7355 83.9155C47.7765 83.5157 47.838 83.1262 47.92 82.7469L38.1299 80.8503Z" fill="#FEB546"/>
<path opacity="0.5" d="M142.633 85.5559C142.623 85.8122 142.602 86.0582 142.572 86.3145C142.438 87.5447 143.392 88.6211 144.622 88.6211H152.597C154.043 88.6211 155.222 87.4422 155.222 85.9967V85.5662H142.633V85.5559Z" fill="#FEB546"/>
<path d="M122.017 85.5558C122.017 85.0125 122.058 84.4794 122.13 83.9566C122.222 83.3312 121.75 82.7572 121.115 82.7367L69.13 81.4655C68.5662 81.4552 68.1562 81.9883 68.3099 82.5419C68.5765 83.4953 68.72 84.4999 68.72 85.5353C68.72 86.2221 68.6585 86.8885 68.5354 87.5446C68.4124 88.2212 68.925 88.8567 69.6118 88.8567H120.479C121.474 88.8567 122.232 87.9751 122.099 86.9807C122.048 86.5092 122.017 86.0274 122.017 85.5558Z" fill="#EAB054"/>
<path opacity="0.5" d="M122.017 85.5559C122.017 85.5457 122.017 85.5354 122.017 85.5251H68.7306C68.7306 86.212 68.6691 86.8783 68.5461 87.5344C68.4231 88.211 68.9357 88.8466 69.6225 88.8466H120.49C121.484 88.8466 122.243 87.965 122.11 86.9706C122.048 86.5093 122.017 86.0275 122.017 85.5559Z" fill="#FEB546"/>
<path d="M58.5814 64.6429L87.3058 64.9094C87.3058 64.9094 89.0691 64.8581 89.3048 63.2077C89.5406 61.5572 89.5201 54.4632 89.5201 54.4632C89.5201 54.4632 89.3151 53.0383 87.9516 53.0178C87.1213 53.0075 80.1811 52.5154 73.4357 53.3355C67.9307 54.0019 62.8357 56.5237 58.9709 60.3885L56.9309 62.4286C56.9309 62.4286 55.5572 64.6121 58.5814 64.6429Z" fill="#EAFCFC"/>
<path d="M92.7188 55.3655V62.7978C92.7188 63.7614 93.4569 64.561 94.4 64.5918L116.974 65.5042C117.496 65.5247 117.999 65.2889 118.296 64.8481C118.706 64.2535 118.747 63.2693 116.728 61.9469C113.211 59.6609 104.262 54.6992 100.951 54.2276C98.8388 53.9201 96.0812 53.7868 94.359 53.7355C93.4671 53.7048 92.7188 54.4429 92.7188 55.3655Z" fill="#EAFCFC"/>
<path d="M62.8357 61.1677C62.8357 61.1677 81.5547 59.0354 81.9546 59.4045C82.3544 59.7735 84.9582 65.8629 85.4298 67.5236L63.379 67.3186L61.8311 64.9812L62.8357 61.1677Z" fill="#B75742"/>
<path d="M102.529 62.8489C102.529 62.8489 104.252 64.8889 104.744 67.0827L104.2 67.9643L103.114 66.8162L102.529 62.8489Z" fill="#263D60"/>
<path d="M104.364 57.4979C104.036 55.3451 102.089 53.7971 100.059 54.8428C99.5974 55.0785 98.9824 55.5501 98.6646 55.9602C97.8137 57.0571 97.5882 58.4103 96.7065 59.4764C97.0346 59.7224 97.4241 59.9787 97.8855 60.2248L98.439 59.4866L98.2545 60.399C99.6179 61.0551 101.545 61.5882 104.19 61.5779C104.518 60.0915 104.539 58.646 104.364 57.4979Z" fill="#1A1A1A"/>
<path d="M99.8022 62.2338C99.8022 62.2338 97.8442 62.1108 97.0754 62.9514C96.2963 63.7921 98.7976 70.4657 98.9309 71.5319C99.0744 72.6083 97.7725 74.7406 97.7725 74.7406C97.7725 74.7406 103.154 77.2624 104.477 76.391C104.477 76.391 104.262 67.7901 104.128 67.0315C103.985 66.2626 102.816 63.1462 102.529 62.8387C102.242 62.5414 99.8022 62.2338 99.8022 62.2338Z" fill="#355389"/>
<path d="M100.448 59.6196C100.448 59.6196 100.438 59.6811 100.417 59.7734C100.325 60.245 99.9972 61.8032 99.7716 62.2337C99.4949 62.7565 100.715 64.407 101.883 64.202C102.232 64.1405 101.586 62.6848 101.617 62.531C101.678 62.2337 101.76 61.8339 101.842 61.4136C101.894 61.1778 101.935 60.942 101.976 60.7165C102.099 60.0809 102.201 59.5684 102.201 59.5684L100.448 59.6196Z" fill="#F7A491"/>
<path d="M62.9796 61.5265C62.9591 61.3933 62.9079 61.2805 62.8361 61.1677L60.058 63.9561C60.058 63.9561 57.9667 67.2673 62.5696 67.3186L63.8305 67.3288L62.9796 61.5265Z" fill="#B75742"/>
<path opacity="0.3" d="M100.417 59.7734C100.438 59.6709 100.448 59.6196 100.448 59.6196L102.201 59.5786C102.201 59.5786 102.099 60.0912 101.976 60.7268C101.935 60.9523 101.883 61.1778 101.842 61.4136C101.576 61.3726 101.289 61.2393 101.002 60.9933C100.694 60.7268 100.489 60.3987 100.366 60.0502C100.387 59.9477 100.407 59.8452 100.417 59.7734Z" fill="#F47458"/>
<path d="M101.627 55.6423C101.627 55.6423 100.807 55.55 100.284 56.2164C99.7715 56.8827 99.2077 58.9535 100.499 60.0709C101.781 61.1985 103.052 59.9274 103.247 58.5742C103.431 57.2312 103.503 55.6013 101.627 55.6423Z" fill="#F7A491"/>
<path d="M103.616 58.5638C103.462 58.8611 103.206 59.0251 103.042 58.9329C102.878 58.8406 102.868 58.5228 103.021 58.2255C103.175 57.9283 103.431 57.7642 103.595 57.8565C103.759 57.9488 103.77 58.2665 103.616 58.5638Z" fill="#F7A491"/>
<path d="M101.72 55.4269C101.72 55.4269 100.612 57.3951 99.8333 57.4772C99.0439 57.5694 98.9414 58.6151 98.9414 58.6151C98.9414 58.6151 99.2284 56.206 100.008 55.7447C100.787 55.2834 101.72 55.4269 101.72 55.4269Z" fill="#1A1A1A"/>
<path d="M100.039 57.9794C100.1 58.328 99.977 58.6458 99.7515 58.697C99.526 58.738 99.2902 58.492 99.2287 58.1434C99.1672 57.7949 99.2902 57.4771 99.5157 57.4258C99.7412 57.3848 99.977 57.6309 100.039 57.9794Z" fill="#F7A491"/>
<path d="M97.2602 71.7676C97.2602 71.747 97.9983 68.5999 98.2955 67.9028C98.5928 67.2057 99.7615 63.9662 99.7615 63.9662L98.2545 63.6382C98.2545 63.6382 97.2807 66.1703 96.8399 67.3184C96.399 68.4666 96.5836 70.5784 96.5631 71.173C96.5631 71.1832 96.5016 71.6753 96.5016 71.6855C96.4913 71.747 96.4708 71.8086 96.4708 71.8188C96.4503 71.8496 96.399 72.0443 96.399 72.0648C96.399 72.0853 96.3478 72.1469 96.3375 72.1776C96.317 72.2084 96.276 72.6082 96.2658 72.6799C96.2555 72.7414 96.2863 72.8952 96.2863 72.8952L96.2658 73.1617C96.2555 73.3565 96.4605 73.3053 96.4605 73.3053C96.4605 73.3975 96.4913 73.4488 96.5426 73.4693C96.5938 73.4898 96.6553 73.4693 96.6656 73.4795C96.6758 73.4795 96.6758 73.5103 96.6758 73.5103C96.6656 73.5718 96.7373 73.6128 96.7783 73.6231C96.8193 73.6333 96.9014 73.6025 96.9219 73.5718C96.9424 73.541 96.9629 73.5513 96.9629 73.5513C97.0039 73.5923 97.1781 73.582 97.2191 73.5308C97.2602 73.4795 97.2909 73.1925 97.3114 73.1617C97.3319 73.131 97.3627 73.09 97.3729 73.049C97.3832 73.008 97.5164 72.7107 97.5267 72.6594C97.5369 72.6082 97.4447 72.4031 97.4344 72.2801C97.4139 72.1571 97.3012 71.9828 97.2704 71.9213C97.2499 71.9111 97.2602 71.8496 97.2602 71.7676Z" fill="#F48C7F"/>
<path d="M102.242 59.2302L100.971 59.1687C100.971 59.1687 100.971 59.6505 101.535 59.6915C102.212 59.753 102.242 59.2302 102.242 59.2302Z" fill="white"/>
<path d="M95.3129 60.2043L94.8516 63.2387C94.8516 63.2387 96.5225 66.8472 97.5272 66.5397C98.3678 66.2732 97.845 63.085 97.845 63.085C97.845 63.085 97.3837 61.373 97.5272 60.5119C97.6604 59.6405 95.3129 60.2043 95.3129 60.2043Z" fill="#F7A491"/>
<path d="M97.5268 60.5015C97.6601 59.6404 95.3125 60.2042 95.3125 60.2042L95.2715 60.4605C95.3432 60.6245 95.4253 60.768 95.5278 60.8808C96.0506 61.4446 96.8707 61.7932 97.5883 61.8137C97.5165 61.3421 97.4755 60.8501 97.5268 60.5015Z" fill="#F47458"/>
<path d="M94.923 55.9088C94.8615 55.8883 94.39 59.3636 95.2716 60.3169C96.1532 61.2703 97.8857 61.5881 98.5008 60.8295C99.1876 59.9991 99.1466 56.2574 97.7729 55.2732C96.3992 54.2994 94.923 55.9088 94.923 55.9088Z" fill="#F7A491"/>
<path d="M97.2604 53.4279C96.1943 53.6432 95.5074 54.2993 95.2511 54.576C94.7693 54.6376 94.1132 54.9041 93.4366 56.0318C92.6063 57.4157 93.2214 58.9534 94.185 59.712C95.1589 60.4604 95.1384 61.3317 95.1384 61.3317L95.2921 60.8807C95.4049 60.5424 95.4562 60.1733 95.4152 59.8248C95.3946 59.6095 95.3434 59.3737 95.2614 59.1892C95.0256 58.6869 95.7637 58.3486 95.9687 57.9283C96.1225 57.6105 96.1327 56.8724 96.389 56.3393L96.6863 55.9292C96.6863 55.9292 97.3732 55.3962 98.0498 55.5397C98.7161 55.6832 98.6238 53.1409 97.2604 53.4279Z" fill="#13375B"/>
<path d="M95.9178 58.5435C95.928 58.9638 95.7332 59.3124 95.4872 59.3226C95.2412 59.3226 95.0361 58.9843 95.0361 58.564C95.0361 58.1437 95.2207 57.7951 95.4667 57.7849C95.7127 57.7746 95.9178 58.1129 95.9178 58.5435Z" fill="#F7A491"/>
<path d="M97.3633 59.5173L98.696 59.4456C98.696 59.4456 98.696 59.9581 98.1014 59.9991C97.394 60.0606 97.3633 59.5173 97.3633 59.5173Z" fill="white"/>
<path d="M94.472 63.1155C94.595 62.8899 94.8205 62.7362 95.0768 62.7054C96.1942 62.6029 99.2799 62.6029 100.859 65.3298C101.105 65.7603 101.289 66.2216 101.412 66.7034L101.74 68.0669L93.6211 67.8003L93.6313 66.8982C93.5698 65.586 93.8466 64.2739 94.472 63.1155Z" fill="#3C8F7C"/>
<path d="M113.744 68.5694L114.923 63.782C115.005 63.4642 114.81 63.1361 114.482 63.0541C114.165 62.9721 113.837 63.1669 113.755 63.4949L112.524 68.5079L113.744 68.5694Z" fill="#1A1A1A"/>
<path d="M110.699 68.4256C111.038 68.2206 111.304 68.0463 111.489 67.9335C111.499 67.9233 112.35 67.5132 112.37 67.5132C112.493 67.4722 112.596 67.4312 112.616 67.4312C112.678 67.4312 113.047 67.3082 113.078 67.2877C113.109 67.2775 113.262 67.2775 113.324 67.2775C113.385 67.2775 114.072 66.9289 114.185 66.8674C114.298 66.8161 114.503 66.6111 114.503 66.6111L114.944 66.3548C115.272 66.1703 114.974 65.8935 114.974 65.8935C115.128 65.8013 115.169 65.6987 115.149 65.5962C115.118 65.4937 115.036 65.4117 115.026 65.3912C115.026 65.3707 115.067 65.3399 115.067 65.3399C115.169 65.2887 115.169 65.1349 115.138 65.0529C115.108 64.9709 114.985 64.8786 114.913 64.8786C114.851 64.8684 114.841 64.8376 114.841 64.8376C114.851 64.7249 114.677 64.4686 114.554 64.4583C114.431 64.4481 113.939 64.6941 113.877 64.6941C113.816 64.6941 113.713 64.6736 113.642 64.7146C113.57 64.7454 112.965 64.8274 112.863 64.8786C112.76 64.9299 112.534 65.2682 112.37 65.4117C112.206 65.5655 112.032 65.9345 111.981 66.037C111.96 66.078 111.848 66.1395 111.725 66.2011C111.704 66.2216 108.003 67.5542 105.82 68.2103L110.699 68.4256Z" fill="#F7A491"/>
<path d="M99.167 67.9643C98.9414 66.5906 98.6544 65.1452 98.3469 64.4686C97.6805 63.0026 95.4355 62.1313 94.3386 63.0436C93.7542 63.5255 94.0003 65.8423 94.5026 67.8413L99.167 67.9643Z" fill="#50BFA5"/>
<path d="M66.5569 59.9989C66.5569 59.9989 63.8095 59.9272 62.8766 60.5525C61.9438 61.1676 62.0565 67.3184 62.0565 67.3184L62.9586 67.4927C62.9586 67.4927 63.2867 71.7265 63.994 71.9418C64.7014 72.1673 69.3145 70.7424 70.2781 69.5532C71.2418 68.3641 68.2484 59.5889 68.2484 59.5889L66.5569 59.9989Z" fill="#3C8F7C"/>
<path d="M71.4468 55.1193C71.6826 54.3812 71.8466 52.1362 71.8979 51.3673C71.8569 51.3161 71.6621 50.988 71.6826 50.3422C71.6929 49.8911 71.3853 49.1428 71.6724 49.194C71.9594 49.2453 71.9799 50.0244 72.1542 49.8911C72.3285 49.7578 72.4105 48.1176 72.6668 48.1586C72.9333 48.1996 72.7488 49.7476 72.9025 49.6246C73.0563 49.5016 73.0666 48.0766 73.4356 48.1484C73.8047 48.2099 73.2716 49.8193 73.4664 49.8604C73.6612 49.8911 73.9789 48.8762 74.2762 48.9275C74.5735 48.9787 73.7842 50.3012 73.8764 50.2397C73.9687 50.1679 74.6043 49.6246 74.7068 49.7476C74.8298 49.8809 73.3536 51.4391 73.3536 51.8389C73.4766 52.8743 73.7227 54.74 73.3844 55.9189C72.9743 57.3541 71.9287 60.5526 71.9287 60.5526L69.7041 60.0195C69.7041 60.04 71.1598 56.0009 71.4468 55.1193Z" fill="#F7A491"/>
<path d="M72.3906 50.209C72.5034 50.2602 72.5956 50.332 72.6674 50.4243C72.6777 50.4448 72.9544 50.7011 72.8827 51.1316C72.8417 50.8651 72.7802 50.5678 72.3906 50.209Z" fill="#F48C7F"/>
<path d="M58.1508 61.1984C58.1508 61.1984 58.2123 60.8396 57.9047 60.286C57.7099 59.9272 57.6587 59.2096 57.4537 59.3634C57.2486 59.5172 57.5562 60.1528 57.3717 60.1118C57.1871 60.0707 56.4695 58.7893 56.2953 58.9328C56.1107 59.0764 56.8693 60.2348 56.6951 60.204C56.531 60.1733 55.957 59.0354 55.7007 59.2301C55.4444 59.4249 56.49 60.5013 56.3568 60.6141C56.2235 60.7166 55.5777 60.0297 55.3726 60.1835C55.1676 60.3475 56.2953 61.0959 56.1927 61.0754C56.0902 61.0549 55.3931 60.8704 55.3624 61.0139C55.3214 61.1676 56.7873 61.629 56.9513 61.957C57.1154 62.285 59.627 65.5142 60.3446 65.5245C61.0622 65.5245 64.2811 63.3512 64.5169 62.6336C64.7527 61.9263 64.4554 61.1779 63.9941 61.0754C63.5225 60.9729 60.5188 63.1359 60.3753 63.1052C60.2318 63.0744 58.1508 61.1984 58.1508 61.1984Z" fill="#F7A491"/>
<path d="M57.4026 60.4194C57.3308 60.5117 57.2898 60.6245 57.2591 60.7372C57.2591 60.7577 57.1463 61.1268 57.4231 61.4548C57.3411 61.2088 57.2386 60.932 57.4026 60.4194Z" fill="#F48C7F"/>
<path d="M64.9272 65.668C64.9272 65.668 67.8181 67.9643 68.1359 68.4358C68.3717 68.7844 67.5823 72.7414 67.5823 72.7414C67.5823 72.7414 66.4342 72.7722 65.9113 72.3724C65.9113 72.3724 66.2291 69.6353 66.0856 69.5327C65.9524 69.4302 62.7744 68.0155 62.7744 68.0155L62.9794 66.3958L64.9272 65.668Z" fill="#B75742"/>
<path d="M70.4835 57.395C70.4835 57.395 70.9858 57.4873 72.6978 59.353L70.709 63.4024L68.874 60.0399L70.4835 57.395Z" fill="#9BC1F9"/>
<path d="M67.2544 60.2451C67.2544 60.2451 68.5563 59.9581 69.0177 59.7325C69.479 59.507 73.7128 69.4919 72.6467 69.8404C70.4119 70.5785 64.6198 72.5263 64.6198 72.5263C64.6198 72.5263 64.4558 71.9522 64.6608 70.8963C65.0299 69.0716 64.9068 65.0017 64.8248 64.2944C64.7838 63.8741 62.3132 65.0838 62.3132 65.0838L61.3394 61.9263C61.3394 61.9263 64.1585 60.9627 65.1016 60.6654C65.3784 60.5731 67.2544 60.2451 67.2544 60.2451Z" fill="#9BC1F9"/>
<path d="M72.083 66.4266C71.5499 64.7761 68.0542 60.0502 68.0234 59.9989L68.5975 59.6094C68.7205 59.7939 71.5807 63.8125 72.1343 65.5552L72.083 66.4266Z" fill="#3C8F7C"/>
<path d="M64.4867 69.4816L64.1279 69.0203C64.1484 68.9998 66.5883 67.052 66.66 64.889C66.7215 62.7055 64.9685 60.6039 64.948 60.5834L65.3991 60.2041C65.4811 60.2964 67.3264 62.4902 67.2546 64.9095C67.1726 67.3391 64.5995 69.3996 64.4867 69.4816Z" fill="#3C8F7C"/>
<path d="M66.6287 53.5715C66.6287 53.5715 67.6641 52.8026 68.638 54.0533C69.4171 55.0477 69.3145 54.7299 69.7041 55.2322C70.0937 55.7243 70.678 55.7653 70.76 56.5956C70.8523 57.4157 70.4832 57.59 70.4832 57.59C70.4832 57.59 70.9035 58.1949 70.5857 58.892C70.2679 59.589 69.3761 60.2656 68.5662 60.2554C68.5662 60.2554 67.4385 61.0447 66.1981 60.8602C64.9577 60.6757 65.378 60.6347 64.8859 60.6859C64.3939 60.7372 62.9894 60.2041 63.1022 59.1995C63.1022 59.1995 62.1898 58.3179 62.8869 57.4465C63.5943 56.5751 63.9736 55.9601 64.3119 54.8529C64.6502 53.7457 66.0546 53.3767 66.6287 53.5715Z" fill="#1A1A1A"/>
<path d="M68.0128 59.2509C68.0128 59.2509 68.1255 60.7066 68.2793 60.8296C68.4331 60.9526 68.6483 61.1576 68.4843 61.5267C68.3203 61.8957 67.4284 61.7727 66.9979 61.6087C66.5878 61.4549 66.3008 61.1371 66.3008 61.1371L66.2598 58.8101L68.0128 59.2509Z" fill="#F7A491"/>
<path d="M67.5002 59.9172C67.2131 59.8455 66.7006 59.7122 66.2598 59.1381L66.2495 58.8101L68.0127 59.2509C68.0127 59.2509 68.0435 59.6097 68.0845 59.9787C67.8487 59.9992 67.6334 59.948 67.5002 59.9172Z" fill="#F48C7F"/>
<path d="M65.5321 57.5386C65.5321 57.5386 65.3988 56.6878 64.8863 56.9133C64.3737 57.1388 64.917 58.3895 65.3476 58.2972C65.7884 58.205 65.5321 57.5386 65.5321 57.5386Z" fill="#F7A491"/>
<path d="M67.1209 54.2274C67.1209 54.2274 67.941 54.1249 68.4331 54.7195C68.9252 55.3141 69.571 57.0978 69.0174 58.4305C68.4536 59.7632 67.5412 59.5479 67.1619 59.4659C66.7826 59.3736 66.0343 59.1686 65.5422 58.0307C65.0399 56.8826 65.0194 54.2069 67.1209 54.2274Z" fill="#F7A491"/>
<path d="M83.8925 67.8413L85.4097 75.0583L82.7956 74.802L81.5449 68.2001L83.8925 67.8413Z" fill="#F7A491"/>
<path d="M84.3435 68.0463L81.5448 68.2001C81.5448 68.2001 81.3398 66.2625 81.2886 65.3399C81.227 64.2225 81.2475 62.7668 81.3911 62.7873C81.7806 62.8591 82.3034 63.0333 82.6212 63.4434C83.7489 64.8478 84.3435 68.0463 84.3435 68.0463Z" fill="#5184CE"/>
<path d="M82.4988 65.094C82.5705 65.4323 84.344 74.8738 84.344 74.8738C80.1512 77.1804 76.9425 75.2122 76.9425 75.2122C76.9425 75.2122 77.1065 68.8665 76.8913 67.9849C76.7477 67.4006 76.2352 63.5666 76.6042 63.4435C77.086 63.2795 77.8139 63.0335 78.4187 62.9412C78.9415 62.8592 80.9611 62.7259 81.3301 62.8284C81.3301 62.8182 82.222 63.6691 82.4988 65.094Z" fill="#EAFCFC"/>
<path d="M80.9913 56.0934C80.9913 56.0934 82.693 56.0627 82.5495 57.4773C82.5495 57.4773 83.8104 57.9694 82.9698 59.1073C82.9698 59.1073 83.8719 60.3272 82.3034 61.5062C82.3034 61.5062 81.8831 63.1464 80.1199 62.3673C80.1199 62.3673 79.5971 62.7568 78.8692 62.234C78.1414 61.7112 78.0491 61.4036 78.0491 61.4036C78.0491 61.4036 76.4499 61.0961 76.6652 59.6301C76.6652 59.6301 75.8245 58.9125 77.0957 58.0104C77.0957 58.0104 77.0752 55.9909 78.7872 56.2574C78.7975 56.2472 79.8021 54.7095 80.9913 56.0934Z" fill="#13375B"/>
<path d="M78.336 59.4043C78.295 59.7631 78.0592 60.0297 77.8132 59.9989C77.5671 59.9682 77.4133 59.6504 77.4544 59.2916C77.4954 58.9328 77.7312 58.6662 77.9772 58.697C78.2232 58.7277 78.3872 59.0455 78.336 59.4043Z" fill="#F7A491"/>
<path d="M82.3239 60.491C82.1702 60.8191 81.8729 61.0036 81.6473 60.9011C81.4218 60.7986 81.3603 60.45 81.5141 60.122C81.6678 59.7939 81.9651 59.6094 82.1907 59.7119C82.4162 59.8144 82.4674 60.163 82.3239 60.491Z" fill="#F7A491"/>
<path d="M80.2739 61.5877C80.2739 61.6082 80.4174 62.5411 80.4892 63.0229C80.52 63.2074 80.4174 63.3817 80.2432 63.4432C79.7819 63.6175 78.8797 63.8328 78.3159 63.2382C78.2646 63.1869 78.2441 63.1049 78.2441 63.0332L78.4799 60.8701L80.2739 61.5877Z" fill="#F7A491"/>
<path d="M80.417 62.5206C79.9249 62.7256 78.5102 62.5514 78.3975 61.6595L78.4795 60.8804L80.2735 61.5877C80.2735 61.598 80.376 62.2336 80.417 62.5206Z" fill="#F48C7F"/>
<path d="M80.7349 57.19C80.7349 57.19 79.9866 57.026 79.2792 57.4668C78.5616 57.9076 77.4032 59.6504 78.3771 61.1676C79.3407 62.6848 80.9912 61.9364 81.5653 60.737C82.1394 59.5376 82.3854 57.7538 80.7349 57.19Z" fill="#F7A491"/>
<path d="M80.2737 60.9316L79.2793 60.8701C79.2793 60.8701 79.2793 61.2494 79.7201 61.2904C80.2532 61.3417 80.2737 60.9316 80.2737 60.9316Z" fill="white"/>
<path d="M82.0065 58.0307C82.0065 58.0307 81.2786 57.6411 80.7456 57.6924C80.2022 57.7437 78.4492 59.0251 78.193 58.8098C77.9367 58.5945 78.2647 57.4669 78.4697 57.3029C78.6748 57.1388 79.4846 56.6468 79.5564 56.6365C79.6281 56.6263 80.3663 56.6365 80.4893 56.6775C80.6123 56.7083 81.5349 57.1491 81.5349 57.1491L82.0065 58.0307Z" fill="#13375B"/>
<path d="M71.4883 75.7247C71.4986 75.6837 71.5396 75.6837 71.5806 75.6735C71.9497 75.653 72.3187 75.6222 72.6877 75.5607C72.7493 75.5505 72.8108 75.53 72.862 75.5095C72.9645 75.4685 73.0671 75.4582 73.1696 75.489C73.2311 75.4992 73.2823 75.4992 73.3438 75.4992C73.5284 75.489 74.0614 75.2942 74.328 75.2429C74.3895 75.2327 74.4407 75.1814 74.451 75.1199C74.6868 74.0435 75.1891 71.6447 75.2404 70.8553C75.3019 69.8507 75.8554 65.2991 75.8554 65.2991L77.7212 65.7604C77.7212 65.7604 77.0651 69.1228 76.9011 70.7528C76.7781 72.0035 75.6094 74.6996 75.2404 75.4787C75.0661 76.0528 74.6355 76.0835 74.5433 76.0938C74.4818 76.104 74.4305 76.1348 74.3997 76.1758C74.3382 76.2578 74.2562 76.3296 74.1742 76.3911C74.1127 76.4321 74.0614 76.4936 74.0204 76.5551C73.9487 76.6679 73.8769 76.7909 73.8154 76.9139C73.7744 76.9959 73.7231 77.0267 73.6514 77.0062C73.5796 76.9857 73.5386 76.9344 73.5386 76.8421C73.5386 76.7089 73.5796 76.5859 73.6411 76.4731C73.7026 76.3603 73.6924 76.2988 73.6206 76.2066C73.5796 76.1553 73.5284 76.104 73.4771 76.0528C73.4156 76.0118 73.3643 75.981 73.2823 75.9913C73.1491 76.0323 73.0158 76.063 72.8825 76.0835L72.7698 76.1143L72.7083 76.1246C72.698 76.1246 72.5032 76.1553 72.4315 76.1553C72.3802 76.1553 72.2879 76.1656 72.2162 76.1656C72.1444 76.1758 72.0009 76.145 72.0009 76.145C71.9394 76.145 71.8779 76.1245 71.8266 76.0835C71.8061 76.063 71.7856 76.0425 71.7959 76.0118C71.8061 75.981 71.8266 75.9708 71.8574 75.9605C71.8984 75.9503 72.1342 75.9195 72.1239 75.9093C72.0522 75.9093 71.8369 75.9093 71.7754 75.9093C71.6831 75.9093 71.6011 75.8785 71.5396 75.817C71.5088 75.7965 71.4781 75.7657 71.4883 75.7247Z" fill="#F7A491"/>
<path d="M74.605 68.0362L77.3114 69.3484C77.3114 69.3484 77.7317 67.3596 78.0494 66.1295C78.3262 65.0736 76.973 63.1873 76.522 63.4436C75.5276 64.0177 74.605 68.0362 74.605 68.0362Z" fill="#5184CE"/>
<path d="M92.9136 64.53L117.004 65.5552C117.004 65.5552 114.903 72.5876 114.852 72.9362C114.8 73.2847 106.896 77.6006 104.908 77.5493C102.919 77.4981 98.2853 75.8373 97.2909 75.54C96.2965 75.2427 93.7029 73.2232 93.8567 71.9828C94.0207 70.7424 92.9136 64.53 92.9136 64.53Z" fill="#F7CC7F"/>
<path d="M99.8436 68.0979H93.3749C93.2109 68.0979 93.0879 67.9646 93.0879 67.8108V67.2573C93.0879 67.0932 93.2212 66.9702 93.3749 66.9702H99.8436C100.008 66.9702 100.131 67.1035 100.131 67.2573V67.8108C100.141 67.9646 100.008 68.0979 99.8436 68.0979Z" fill="#EAB054"/>
<path d="M102.642 54.6787L105.902 56.0217L105.718 55.3451L104.498 54.6787C104.498 54.6787 103.503 54.484 103.401 54.4327C103.319 54.3814 102.642 54.6787 102.642 54.6787Z" fill="#F7CC7F"/>
<path opacity="0.6" d="M118.204 63.2692L92.7188 61.0857V62.7874C92.7188 63.7511 93.4569 64.5507 94.4 64.5814L116.974 65.4938C117.496 65.5143 117.999 65.2785 118.296 64.8377C118.552 64.4687 118.665 63.9458 118.204 63.2692Z" fill="#C5DDF9"/>
<path opacity="0.7" d="M92.7188 61.0856V60.8499L118.111 63.1462L118.204 63.2692L92.7188 61.0856Z" fill="#C5DDF9"/>
<path opacity="0.2" d="M98.5928 64.7556L100.91 64.8581L102.816 61.957L100.561 61.7622L98.5928 64.7556Z" fill="white"/>
<path opacity="0.2" d="M102.714 64.9299L104.569 62.1006L103.708 62.0288L101.832 64.889L102.714 64.9299Z" fill="white"/>
<path d="M58.2022 64.6226L87.306 64.9096L87.5623 74.1359C87.5623 74.1359 84.1588 79.077 83.7487 79.0258C83.3387 78.9745 74.6455 77.5803 73.8664 77.6316C73.0873 77.6828 66.2701 74.3409 65.9523 74.4024C65.6345 74.4742 63.5022 73.326 63.5022 73.326L60.0372 70.8862L56.603 67.3494L58.2022 64.6226Z" fill="#F7CC7F"/>
<path d="M64.0965 67.5237H57.6279C57.4638 67.5237 57.3408 67.3904 57.3408 67.2366V66.683C57.3408 66.519 57.4741 66.396 57.6279 66.396H64.0965C64.2605 66.396 64.3835 66.5293 64.3835 66.683V67.2366C64.3835 67.4006 64.2503 67.5237 64.0965 67.5237Z" fill="#EAB054"/>
<path d="M68.4021 57.9282L67.3975 58.123C67.3975 58.123 67.4897 58.5023 67.9408 58.4305C68.4739 58.3383 68.4021 57.9282 68.4021 57.9282Z" fill="white"/>
<path d="M65.2753 56.9645C65.2753 56.9645 67.5511 55.9189 67.7767 54.2889C68.0022 52.659 65.9109 54.2172 65.9109 54.2172L65.0601 55.027L65.2753 56.9645Z" fill="#1A1A1A"/>
<path d="M93.549 64.3252C93.549 64.3252 93.9693 64.6122 94.5024 64.602C94.5024 64.602 93.795 64.8173 93.7745 64.807C93.754 64.7865 93.3952 64.4995 93.4055 64.4995C93.4055 64.479 93.549 64.3252 93.549 64.3252Z" fill="#F7CC7F"/>
<path d="M95.7427 53.7865L98.5926 53.971C98.5926 53.971 98.1313 53.2021 97.9262 53.2021C97.7212 53.2021 96.4295 53.2021 96.4295 53.2021L95.7427 53.7865Z" fill="#F7CC7F"/>
<path d="M194.838 95.9635H9.41718C9.02689 95.9635 8.71094 95.6476 8.71094 95.2573C8.71094 94.867 9.02689 94.551 9.41718 94.551H194.838C195.228 94.551 195.544 94.867 195.544 95.2573C195.538 95.6476 195.228 95.9635 194.838 95.9635Z" fill="#183658"/>
</g>
<defs>
<clipPath id="clip0_41_72376">
<rect width="200.642" height="95.5971" fill="white" transform="translate(0.942383 0.366211)"/>
</clipPath>
</defs>
</svg>
